<?xml version="1.0" encoding="utf-8"?>
<!-- Generator: Adobe Illustrator 23.0.0, SVG Export Plug-In . SVG Version: 6.00 Build 0)  -->
<svg height="24px" width="24px" viewBox="0 0 30 30" style="enable-background:new 0 0 30 30;" xml:space="preserve">
    <style type="text/css">
	.st0{fill:#FFA500;}
	.st1{fill:#31404E;}
    </style>
    <path class="st0" d="M30,0v15.1c0,8.3-6.8,15-15.1,14.9S0,23.2,0,14.9C0,6.7,6.7,0,14.9,0H30z"/>
    <path class="st1" d="M15.8,8.4c-0.3,0-0.5,0-0.8,0c-0.3,0-0.5,0-0.8,0v10.5c-2.7-0.3-4.7-2.2-4.7-4.5c0-1.9,1.4-3.5,3.4-4.2
	l-0.5-1.5c-2.6,0.9-4.4,3.1-4.4,5.6c0,3.1,2.8,5.7,6.3,6v3.6h1.5v-3.6c3.5-0.3,6.3-2.9,6.3-6S19.3,8.8,15.8,8.4z M15.8,18.9V10
	c2.7,0.3,4.7,2.2,4.7,4.5S18.4,18.6,15.8,18.9z"/>
    <rect x="24.9" y="4.1" class="st1" width="1.4" height="5.9"/>
</svg>
