<svg width="119" height="119" viewBox="0 0 119 119">
    <path filter="url(#f2)" fill="#FF9900" class="cls-1" d="M108,0V54.23A54,54,0,1,1,53.77,0Z" />
    <path fill="white" class="cls-2" d="M56.78,30.39c-.91-.09-1.84-.13-2.78-.13a19.69,19.69,0,0,0-2.78.13V68.08c-9.61-1.11-17-7.89-17-16.06,0-6.76,5.09-12.57,12.3-15L44.59,31.8c-9.35,3.21-16,11.05-16,20.22,0,11.22,9.91,20.48,22.63,21.64v13h5.56v-13C69.5,72.5,79.37,63.24,79.37,52S69.5,31.57,56.78,30.39Zm0,37.69V36c9.61,1.11,17,7.88,17,16.05S66.39,67,56.78,68.08Z" />
    <rect fill="white" class="cls-2" x="89.48" y="14.71" width="5.14" height="21.32" />
</svg>